<?xml version="1.0" encoding="UTF-8"?>
<svg width="1280" height="720" viewBox="0 0 1280 720" xmlns="http://www.w3.org/2000/svg">

	<defs>
		<linearGradient id="bgGrad" x1="0" y1="0" x2="1" y2="1">
			<stop offset="0%" stop-color="#fdfdfd"/>
			<stop offset="100%" stop-color="#eaeaea"/>
		</linearGradient>
	</defs>
	<rect width="1280" height="720" fill="url(#bgGrad)"/>

	<g opacity="0.25">
		<g transform="translate(200,200) rotate(-15)">
			<rect x="0" y="0" width="180" height="280" rx="20" ry="20" fill="#fff" stroke="#555" stroke-width="6"/>
			<ellipse cx="90" cy="140" rx="60" ry="35" fill="#8a57ff" fill-opacity="0.3" stroke="#6e2ff2" stroke-width="6"/>
		</g>
		<g transform="translate(950,180) rotate(20)">
			<rect x="0" y="0" width="180" height="280" rx="20" ry="20" fill="#fff" stroke="#555" stroke-width="6"/>
			<rect x="50" y="120" width="80" height="40" rx="12" ry="12" fill="#2ec27e" fill-opacity="0.3" stroke="#1aa85b" stroke-width="6"/>
		</g>
		<g transform="translate(600,480) rotate(-5)">
			<rect x="0" y="0" width="180" height="280" rx="20" ry="20" fill="#fff" stroke="#555" stroke-width="6"/>
			<path d="M 40 140 C 60 90 120 90 140 140 C 160 190 80 190 60 140 Z"
				  fill="#ff4f67" fill-opacity="0.3" stroke="#ff4f67" stroke-width="6"/>
		</g>
	</g>

	<text x="50%" y="55%" text-anchor="middle"
		  font-family="Arial Black, Segoe UI, sans-serif"
		  font-size="200" font-weight="bold"
		  fill="#222">SET</text>

	<text x="50%" y="65%" text-anchor="middle"
		  font-family="Segoe UI, sans-serif"
		  font-size="36" fill="#444">Online Game</text>
</svg>